:SAMPLES-PER-SECOND 30
:FRAME-RANGE 1-2643
:FULLY-SPECIFIED
:DEGREES
413
root  85.7937 31.0289 31.5311 179.771 11.8892 -170.805
RightUpLeg  -50.6078 1.22443 3.77901
RightLeg  64.4888 0.553071 0.664108
RightFoot  -10.2384 -0.135256 6.81111
RightToes  5.38607e-012 1.2921e-014 -6.02303e-014
Spine  21.4301 -4.12069 10.2157
Spine1  -2.75761 -2.16776 1.11895
HEad  -5.17117 38.3784 -19.7162
LeftShoulder1  2.34396 -4.65387 -23.4595
LeftArm  -5.6254 -6.63027 -51.2523
LeftForeArm  27.9975 1.66501 -11.2853
LeftHand  -0.0570441 4.84285 8.227
RightShoulder  1.24651 1.74118 18.1443
RightArm  -29.2987 6.42604 24.0247
RightForeArm  48.7893 -5.65442 1.41485
RightHand  0.0532451 -5.81939 -17.9024
LeftUpLeg  -32.4223 -15.6408 12.9342
LeftLeg  102.051 2.12269 -9.53797
LeftFoot  -20.6931 -0.433169 -6.80594
LeftToes  -4.79707e-012 -5.93756e-011 -7.55542e-012
414
root  86.242 30.2355 29.4105 176.994 12.3888 -172.207
RightUpLeg  -48.0406 0.895306 2.45506
RightLeg  72.859 0.787805 1.92133
RightFoot  -18.4906 0.265468 6.25229
RightToes  5.38607e-012 1.2921e-014 -6.02303e-014
Spine  23.8272 -2.7717 9.07321
Spine1  -2.89801 -0.722354 -0.208242
HEad  -1.56038 36.4389 -16.5994
LeftShoulder1  2.03504 -3.56279 -23.6456
LeftArm  -3.65354 -2.8796 -49.9617
LeftForeArm  28.6416 1.66886 -12.1712
LeftHand  -0.0420931 5.05426 7.77408
RightShoulder  1.41909 2.58078 17.537
RightArm  -31.3436 9.44891 23.4588
RightForeArm  51.5645 -5.37516 0.224074
RightHand  0.0306855 -5.6795 -17.5663
LeftUpLeg  -42.6078 -16.8745 18.3344
LeftLeg  99.8292 1.39876 -7.98651
LeftFoot  -21.8373 -0.428327 -6.08427
LeftToes  -4.79707e-012 -5.93756e-011 -7.55542e-012
415
root  86.5803 29.6519 27.4849 174.54 14.8705 -174.886
RightUpLeg  -45.3736 2.33459 -0.146886
RightLeg  79.0179 0.850941 3.64505
RightFoot  -25.0572 0.497909 5.55109
RightToes  5.38607e-012 1.2921e-014 -6.02303e-014
Spine  26.5026 -1.02765 7.30876
Spine1  -4.02486 1.42344 -3.67929
HEad  1.38654 35.2324 -13.2779
LeftShoulder1  1.61595 -2.21043 -23.2868
LeftArm  -0.701229 2.08461 -47.9347
LeftForeArm  31.025 -0.625661 -13.0476
LeftHand  -0.023359 5.35843 7.33825
RightShoulder  1.60261 3.3124 17.6798
RightArm  -31.9761 12.2562 23.7309
RightForeArm  50.2445 -5.3706 -0.0176834
RightHand  0.0462441 -5.74997 -18.7577
LeftUpLeg  -49.1922 -14.4833 21.3853
LeftLeg  90.4239 -0.0116347 -6.29335
LeftFoot  -20.7392 -0.527739 -7.92208
LeftToes  -4.79707e-012 -5.93756e-011 -7.55542e-012
416
root  86.6987 29.1989 25.7411 172.887 17.5618 -177.098
RightUpLeg  -43.3437 3.49501 -2.71811
RightLeg  83.6964 0.741739 6.08352
RightFoot  -29.7164 0.580373 4.83604
RightToes  5.38607e-012 1.2921e-014 -6.02303e-014
Spine  29.1112 0.415343 6.38299
Spine1  -4.67006 3.21354 -6.52668
HEad  1.32695 33.8664 -12.0848
LeftShoulder1  1.35968 -1.30385 -23.4947
LeftArm  3.22265 4.84877 -45.6073
LeftForeArm  30.2658 -2.3191 -13.6518
LeftHand  -0.0345754 5.16274 7.00122
RightShoulder  1.7499 4.19883 16.724
RightArm  -32.3758 14.7506 25.2729
RightForeArm  51.6028 -5.30962 -0.151975
RightHand  -0.0397307 -5.21692 -19.6648
LeftUpLeg  -52.2185 -11.0199 23.5698
LeftLeg  75.8746 -2.34868 -9.51528
LeftFoot  -16.3132 -0.447995 -12.5222
LeftToes  -4.79707e-012 -5.93756e-011 -7.55542e-012
417
root  86.6797 28.819 24.1334 172.408 20.2393 -178.818
RightUpLeg  -43.1724 3.56085 -5.38877
RightLeg  88.1226 0.271674 9.63209
RightFoot  -31.7925 0.508452 4.01781
RightToes  5.38607e-012 1.2921e-014 -6.02303e-014
Spine  30.9919 1.44586 5.79093
Spine1  -4.75591 4.54109 -9.32506
HEad  -1.22089 32.9363 -12.2508
LeftShoulder1  1.28136 -1.10146 -23.0473
LeftArm  4.29776 4.85954 -44.2497
LeftForeArm  30.1386 -2.56304 -13.7928
LeftHand  -0.0327989 5.18718 6.4213
RightShoulder  1.9068 5.24999 15.6166
RightArm  -33.8789 18.242 26.7211
RightForeArm  53.0978 -5.11573 -1.02822
RightHand  -0.156678 -4.51445 -19.4798
LeftUpLeg  -52.564 -7.33751 25.0415
LeftLeg  59.0304 -6.77194 -11.4692
LeftFoot  -8.47438 0.610554 -22.1363
LeftToes  -4.79707e-012 -5.93756e-011 -7.55542e-012
418
root  86.5949 28.37 22.5616 172.133 22.8309 179.892
RightUpLeg  -43.3648 2.49593 -7.71462
RightLeg  92.2681 -0.620328 12.1973
RightFoot  -33.1323 0.503987 3.79074
RightToes  5.38607e-012 1.2921e-014 -6.02303e-014
Spine  32.4188 2.28881 4.8504
Spine1  -3.89632 5.48701 -11.2673
HEad  -4.95609 32.6821 -13.5063
LeftShoulder1  1.34178 -1.31456 -23.0133
LeftArm  4.64402 1.99253 -43.0743
LeftForeArm  30.1385 -2.30878 -13.911
LeftHand  -0.0326852 5.18762 6.29192
RightShoulder  1.97428 6.11482 14.1675
RightArm  -35.2114 21.6298 27.2022
RightForeArm  55.7542 -4.90125 -1.80529
RightHand  -0.167474 -4.42817 -19.0142
LeftUpLeg  -51.7091 -4.13851 26.0723
LeftLeg  46.807 -10.1175 -10.9336
LeftFoot  -2.59975 2.24464 -28.6116
LeftToes  -4.79707e-012 -5.93756e-011 -7.55542e-012
419
root  86.4377 27.7008 21.0628 171.749 25.2715 179.343
RightUpLeg  -43.2712 1.23239 -9.23437
RightLeg  96.1724 -1.60913 13.169
RightFoot  -35.2975 0.578388 3.86161
RightToes  5.38607e-012 1.2921e-014 -6.02303e-014
Spine  34.0839 3.07205 3.35832
Spine1  -3.14428 6.08037 -12.0099
HEad  -8.14525 33.4241 -14.6782
LeftShoulder1  1.45486 -1.7689 -22.6224
LeftArm  3.04073 -2.05234 -42.4057
LeftForeArm  31.9303 -1.70257 -13.692
LeftHand  -0.0328988 5.18222 6.21891
RightShoulder  1.95347 6.36898 13.325
RightArm  -36.6783 23.4418 26.6272
RightForeArm  55.8575 -4.75557 -2.62573
RightHand  -0.21172 -4.16024 -19.0898
LeftUpLeg  -51.6861 -0.896804 26.3022
LeftLeg  43.3461 -8.75845 -8.36063
LeftFoot  0.0567884 3.20641 -31.3945
LeftToes  -4.79707e-012 -5.93756e-011 -7.55542e-012
420
root  86.2284 26.683 19.643 172.22 26.8259 179.19
RightUpLeg  -44.5505 -0.110792 -11.0481
RightLeg  101.013 -3.0366 14.2767
RightFoot  -37.788 0.747634 4.28162
RightToes  5.38607e-012 1.2921e-014 -6.02303e-014
Spine  35.5796 3.37611 1.4424
Spine1  -3.46408 5.89181 -12.5908
HEad  -10.3226 34.52 -14.8729
LeftShoulder1  1.50532 -2.02651 -22.1585
LeftArm  1.71641 -6.77812 -41.076
LeftForeArm  30.9205 -1.47019 -13.4771
LeftHand  -0.0354743 5.13495 6.4393
RightShoulder  1.92018 6.32284 13.0486
RightArm  -37.582 23.0192 26.077
RightForeArm  55.8012 -4.64953 -3.24384
RightHand  -0.162937 -4.47023 -19.3283
LeftUpLeg  -55.5836 2.64372 25.0415
LeftLeg  51.3014 -10.4919 -13.2822
LeftFoot  2.52082 3.74371 -30.2661
LeftToes  -4.79707e-012 -5.93756e-011 -7.55542e-012
421
root  85.9875 25.6487 18.3651 172.999 26.9089 179.441
RightUpLeg  -45.6651 -1.53426 -13.2216
RightLeg  105.709 -4.75503 15.5903
RightFoot  -39.7533 1.12546 5.52088
RightToes  5.38607e-012 1.2921e-014 -6.02303e-014
Spine  37.5429 3.01553 -0.195053
Spine1  -3.74983 4.90976 -12.7765
HEad  -14.1738 35.0689 -16.1627
LeftShoulder1  1.73691 -2.91645 -21.8273
LeftArm  -2.87893 -13.4806 -38.7535
LeftForeArm  28.5211 0.796149 -12.6013
LeftHand  -0.0505956 4.83759 6.42884
RightShoulder  1.88983 6.14994 13.0944
RightArm  -38.2926 20.65 25.6773
RightForeArm  55.232 -4.55876 -3.86275
RightHand  -0.157461 -4.45943 -18.3455
LeftUpLeg  -61.2066 4.23262 23.7467
LeftLeg  61.0186 -9.40154 -17.232
LeftFoot  2.22067 2.78718 -23.2672
LeftToes  -4.79707e-012 -5.93756e-011 -7.55542e-012
422
root  85.837 24.8081 17.302 173.938 26.5136 178.13
RightUpLeg  -47.6332 -2.04198 -16.8692
RightLeg  109.731 -6.44894 16.6071
RightFoot  -41.0723 1.70499 7.48007
RightToes  5.38607e-012 1.2921e-014 -6.02303e-014
Spine  39.4363 2.86722 -3.3612
Spine1  -4.34612 3.57059 -13.149
HEad  -17.6761 35.2177 -17.1749
LeftShoulder1  2.15078 -4.61587 -21.0191
LeftArm  -7.8546 -20.909 -35.9399
LeftForeArm  23.1886 3.92271 -11.0167
LeftHand  -0.0383384 5.07396 6.29469
RightShoulder  1.88877 5.76686 14.0086
RightArm  -39.026 18.1585 26.0125
RightForeArm  55.0355 -4.43115 -4.62356
RightHand  -0.119019 -4.70779 -18.4219
LeftUpLeg  -65.9734 4.34135 22.1204
LeftLeg  67.5744 -7.4443 -18.4701
LeftFoot  -0.402547 2.09365 -21.6141
LeftToes  -4.79707e-012 -5.93756e-011 -7.55542e-012
